<svg width="1653" height="2339" viewBox="0 0 1653 2339" fill="none" xmlns="http://www.w3.org/2000/svg">
<rect x="1162" y="268" width="335" height="335" stroke="black" stroke-width="10"/>
<rect x="1027" y="669" width="385" height="1541" stroke="black" stroke-width="10"/>
<line x1="165" y1="697.5" x2="778" y2="697.5" stroke="black" stroke-width="35"/>
<line x1="130" y1="367.5" x2="229" y2="367.5" stroke="black" stroke-width="35"/>
<line x1="729" y1="367.5" x2="807" y2="367.5" stroke="black" stroke-width="35"/>
<line x1="624" y1="440.5" x2="702" y2="440.5" stroke="black" stroke-width="35"/>
<line x1="827" y1="440.5" x2="905" y2="440.5" stroke="black" stroke-width="35"/>
<line x1="130" y1="440.5" x2="240" y2="440.5" stroke="black" stroke-width="35"/>
<line x1="130" y1="513.5" x2="323" y2="513.5" stroke="black" stroke-width="35"/>
<line x1="130" y1="747" x2="807" y2="747" stroke="#5C5C5C" stroke-width="14"/>
<line x1="130" y1="787" x2="807" y2="787" stroke="#5C5C5C" stroke-width="14"/>
<line x1="130" y1="827" x2="807" y2="827" stroke="#5C5C5C" stroke-width="14"/>
<line x1="130" y1="867" x2="807" y2="867" stroke="#5C5C5C" stroke-width="14"/>
<line x1="130" y1="907" x2="807" y2="907" stroke="#5C5C5C" stroke-width="14"/>
<line x1="130" y1="947" x2="351" y2="947" stroke="#5C5C5C" stroke-width="14"/>
<line x1="130" y1="987" x2="807" y2="987" stroke="#5C5C5C" stroke-width="14"/>
<line x1="130" y1="1027" x2="807" y2="1027" stroke="#5C5C5C" stroke-width="14"/>
<line x1="130" y1="1067" x2="807" y2="1067" stroke="#5C5C5C" stroke-width="14"/>
<line x1="130" y1="1107" x2="807" y2="1107" stroke="#5C5C5C" stroke-width="14"/>
<line x1="130" y1="1147" x2="807" y2="1147" stroke="#5C5C5C" stroke-width="14"/>
<line x1="130" y1="1187" x2="807" y2="1187" stroke="#5C5C5C" stroke-width="14"/>
<line x1="130" y1="1227" x2="276" y2="1227" stroke="#5C5C5C" stroke-width="14"/>
<line x1="130" y1="1267" x2="807" y2="1267" stroke="#5C5C5C" stroke-width="14"/>
<line x1="130" y1="1307" x2="807" y2="1307" stroke="#5C5C5C" stroke-width="14"/>
<line x1="130" y1="1347" x2="807" y2="1347" stroke="#5C5C5C" stroke-width="14"/>
<line x1="130" y1="1387" x2="627" y2="1387" stroke="#5C5C5C" stroke-width="14"/>
<rect x="119" y="119" width="183" height="87" fill="#12D0FD"/>
<rect x="302" y="119" width="183" height="87" fill="#7D00B2"/>
</svg>
